<?xml version="1.0" encoding="utf-8"?>
<!-- Generator: Adobe Illustrator 26.1.0, SVG Export Plug-In . SVG Version: 6.00 Build 0)  -->
<svg version="1.1" id="Layer_1" xmlns="http://www.w3.org/2000/svg" xmlns:xlink="http://www.w3.org/1999/xlink" x="0px" y="0px"
	 viewBox="0 0 640 640" style="enable-background:new 0 0 640 640;" xml:space="preserve">
<style type="text/css">
	.st0{fill:#FFFFFF;}
</style>
<path class="st0" d="M550.9,6.2c1.4-3.8,5-6.2,9-6.2c4,0,7.6,2.5,9,6.2l17.6,47.1L633.7,71c3.8,1.4,6.2,5,6.2,9s-2.5,7.6-6.2,9
	l-47.1,17.7l-17.6,47.1c-1.4,3.8-5,6.2-9,6.2c-4,0-7.6-2.5-9-6.2l-17.6-47.1L485,89c-3.8-1.4-5.1-5-5.1-9s1.4-7.6,5.1-9l48.2-17.7
	L550.9,6.2z M361.6,121.7c15.6-15.6,40.9-15.6,56.5,0l35.9,35.9l21.8-21.8c7.7-7.9,20.5-7.9,28.2,0c7.9,7.8,7.9,20.5,0,28.2
	l-21.8,21.8l35.9,35.9c15.6,15.6,15.6,40.9,0,56.5l-13.5,13.6c9.9,27.5,15.3,57.2,15.3,88.1c0,143.6-116.4,260-260,260
	c-143.6,0-260-116.4-260-260s116.4-260,260-260c30.9,0,60.6,5.4,88.1,15.4L361.6,121.7z M118.8,370c0-71.8,59.4-130,130-130h10
	c12.1,0,20-9,20-20s-7.9-20-20-20h-10c-92.8,0-170,76.1-170,170v10c0,11,10.1,20,20,20c12.2,0,20-9,20-20V370z"/>
</svg>
