<?xml version="1.0" encoding="utf-8"?>
<!-- Generator: Adobe Illustrator 26.1.0, SVG Export Plug-In . SVG Version: 6.00 Build 0)  -->
<svg version="1.1" id="Layer_1" xmlns="http://www.w3.org/2000/svg" xmlns:xlink="http://www.w3.org/1999/xlink" x="0px" y="0px"
	 viewBox="0 0 640 640" style="enable-background:new 0 0 640 640;" xml:space="preserve">
<style type="text/css">
	.st0{fill:#FFFFFF;}
</style>
<path class="st0" d="M621.1,531.2c25,25,25,65.5,0,90.6c-12.4,12.5-28.8,18.7-45.2,18.7s-32.8-6.3-45.3-18.8L319.8,410.9
	L108.9,621.7c-12.5,12.6-28.9,18.8-45.3,18.8s-32.8-6.2-45.3-18.8c-25-25-25-65.5,0-90.6l210.9-210.9L18.3,109.3
	c-25-25-25-65.5,0-90.6s65.5-25,90.6,0l210.9,211L530.7,18.9c25-25,65.5-25,90.6,0c25,25,25,65.5,0,90.6L410.3,320.4L621.1,531.2z"
	/>
</svg>
