<?xml version="1.0" encoding="utf-8"?>
<!-- Generator: Adobe Illustrator 26.3.1, SVG Export Plug-In . SVG Version: 6.00 Build 0)  -->
<svg version="1.1" id="Layer_1" xmlns="http://www.w3.org/2000/svg" xmlns:xlink="http://www.w3.org/1999/xlink" x="0px" y="0px"
	 viewBox="0 0 1015 289" style="enable-background:new 0 0 1015 289;" xml:space="preserve">
<style type="text/css">
	.st0{fill:#FFFFFF;}
</style>
<g transform="translate(0.000000,289.000000) scale(0.100000,-0.100000)">
	<path class="st0" d="M1205,2864C610,2754,164,2322,34,1729c-27-119-27-447-1-569c62-290,188-522,396-731C792,67,1287-74,1786,45
		c807,192,1285,1041,1032,1834c-71,226-184,409-357,581c-206,204-440,333-721,395C1633,2879,1313,2885,1205,2864z M1720,2711
		c221-51,431-159,590-304l53-47l-329-575c-180-316-331-572-335-567c-3,4-99,146-212,315l-206,308l149,262l150,262l-210,3
		c-116,1-305,1-420,0l-210-3l176-263c96-145,174-270,172-277c-5-23-652-1154-661-1155c-13,0-116,165-152,243
		c-87,191-120,369-112,591c12,325,129,602,351,834c202,212,443,338,741,388C1366,2745,1608,2737,1720,2711z M2517,2168
		c93-139,169-326,198-493c20-115,20-333,1-446c-71-402-335-751-706-935c-300-148-679-170-992-58c-154,56-313,150-433,257l-49,44
		l318,559c175,307,324,565,331,573c11,11,51-44,223-301l209-313l-153-268l-153-267h426h425l-18,28c-9,15-91,137-180,271l-163,245
		l32,56c320,563,633,1109,637,1110C2473,2230,2494,2202,2517,2168z M1307,2203c-51-94-120-213-123-213c-5,0-144,208-144,215
		c0,3,61,5,136,5C1250,2210,1309,2207,1307,2203z M1818,758c29-42,52-80,52-83c0-7-275-7-282,1c-3,3,23,57,59,120l65,114l27-38
		C1754,852,1790,800,1818,758z"/>
	<path class="st0" d="M9455,2311c-22-10-74-45-116-78c-265-211-601-751-709-1138c-26-93-54-146-116-214c-49-55-117-88-156-76
		c-30,10-38,23-38,66c0,50,24,115,125,331c47,104,85,196,83,205c-4,24-114,82-154,83c-17,0-43-9-57-20c-40-32-74-25-68,13
		c1,4-5,23-13,42c-37,88-161,84-230-9c-17-22-21-43-22-105c0-77-2-80-81-242c-45-90-96-186-113-212c-42-62-93-97-142-97
		c-36,0-88,17-88,29c0,3,14,26,31,51c125,185,165,394,96,499c-140,212-568-15-743-393c-62-134-141-222-216-241c-23-6-34-1-63,28
		l-35,35l36,53c48,71,82,147,105,238c42,164,10,290-88,340c-27,14-103,14-137,1c-14-5-26-8-26-6s70,147,155,322s155,324,155,331
		s-11,20-25,29c-44,29-160-1-207-52c-9-11-146-289-304-619c-231-483-295-608-328-643c-39-42-220-142-232-129c-3,3,67,172,155,376
		c89,204,161,376,161,382s-34,9-91,7l-92-3l-138-305c-143-314-165-351-226-366c-16-4-36-2-52,7c-47,26-40,68,34,230
		c82,177,131,301,140,355c15,92-50,157-135,134c-71-19-112-97-75-146c30-40,17-83-83-269c-122-226-196-312-315-365
		c-87-38-209-23-237,29c-15,28-13,111,3,111c22,0,137,59,208,106c91,62,208,186,244,259c39,79,45,160,15,197c-84,108-351,22-532-170
		c-204-218-258-494-121-624c48-46,119-71,213-76c132-6,258,25,350,87l43,28l27-31c27-29,33-31,97-31c54,0,79,6,123,27
		c30,15,56,26,58,24c1-2-4-19-13-37c-14-28-29-40-88-63c-146-59-287-138-347-193c-149-138-125-320,47-352c68-13,159,2,232,38
		c92,47,136,104,225,293l79,166l46,12c74,19,193,67,254,104l57,35l16-24c59-90,208-102,361-30l72,34l31-29c36-34,114-55,174-46
		c52,8,150,53,192,89c39,33,50,34,58,2c3-13,22-40,41-59c89-89,265-59,440,75l65,49l40-20c98-50,215-46,303,9c59,38,126,141,233,358
		c46,95,94,181,106,193c52,48,128,43,128-9c0-14-39-111-87-216c-88-189-88-190-88-271c0-73,3-84,29-118c43-57,101-79,195-74
		c90,4,159,33,237,102l52,45l6-31c32-162,258-192,464-61l53,34l30-26c17-14,42-28,56-31c44-11,124,4,179,36l54,30l-21-42
		c-19-39-29-46-102-77c-266-111-390-203-422-315c-35-120,14-203,132-225c103-20,229,17,309,91c60,55,76,81,158,259l68,145l76,23
		c252,74,416,209,495,408c26,65-3,123-60,123c-12,0-32-27-63-82c-69-125-144-200-257-255c-52-25-96-43-99-40s67,172,155,376
		c89,203,161,375,161,381c0,7-31,10-91,8l-92-3l-138-305c-142-315-165-351-226-366c-16-5-36-2-52,8c-46,26-36,78,54,273
		c119,259,138,325,111,389c-31,74-134,82-190,15c-29-34-33-75-11-105c32-42,17-84-104-308c-126-233-237-346-340-346
		c-69,0-87,36-78,159c9,131,107,401,246,679c154,307,334,561,390,550c47-9,2-194-86-358c-84-156-162-260-290-387
		c-112-111-123-124-123-157c0-75,53-52,184,79c182,183,349,453,432,700C9649,2263,9605,2380,9455,2311z M5170,1373
		c0-49-41-111-119-185c-76-71-235-177-247-165s102,196,175,284c38,47,105,98,136,105S5170,1402,5170,1373z M6597,1375
		c83-58,13-297-134-455c-31-34-69-68-84-76c-64-32-129-4-129,56c0,17,44,120,104,245c94,194,108,217,138,230
		C6535,1394,6570,1394,6597,1375z M7534,1267c12-46-4-122-43-202l-28-60l-8,39c-11,53,0,143,26,210C7504,1318,7520,1322,7534,1267z
		 M7350,1239c-43-127-45-252-4-330c16-33,16-33-12-56c-142-117-247-59-200,111c27,95,84,193,158,270c37,39,69,68,72,65
		C7366,1297,7360,1270,7350,1239z M5400,465c0-3-20-45-45-94c-52-104-97-147-163-157c-119-18-136,77-28,155
		C5230,416,5400,485,5400,465z M9320,466c0-3-18-43-41-90c-49-103-98-152-161-161c-124-19-143,79-30,157C9153,417,9320,484,9320,466
		z"/>
	<path class="st0" d="M4519,2247c-256-220-531-573-890-1142c-52-82-115-171-140-197c-40-42-50-48-87-48c-36,0-44,4-57,29
		c-22,43-53,61-105,61c-88,0-150-70-150-168c0-122,129-195,275-157c137,36,228,118,462,416c170,217,258,319,275,319c6,0,8-11,4-27
		s-14-71-22-123c-28-168-3-546,39-587c26-27,44-2,82,115c116,352,400,749,694,967c79,58,92,73,102,109c34,131,119,333,179,426
		c36,56,37,70,6,70c-100,0-506-420-751-777c-91-133-100-136-92-36c15,189,143,545,267,739c36,58,38,74,7,74
		C4602,2310,4564,2285,4519,2247z"/>
</g>
</svg>
