<?xml version="1.0" standalone="no"?>
<!DOCTYPE svg PUBLIC "-//W3C//DTD SVG 20010904//EN"
 "http://www.w3.org/TR/2001/REC-SVG-20010904/DTD/svg10.dtd">
<svg version="1.0" xmlns="http://www.w3.org/2000/svg"
 width="1015.000000pt" height="289.000000pt" viewBox="0 0 1015.000000 289.000000"
 preserveAspectRatio="xMidYMid meet">

<g transform="translate(0.000000,289.000000) scale(0.100000,-0.100000)"
fill="#000000" stroke="none">
<path d="M1205 2864 c-595 -110 -1041 -542 -1171 -1135 -27 -119 -27 -447 -1
-569 62 -290 188 -522 396 -731 363 -362 858 -503 1357 -384 807 192 1285
1041 1032 1834 -71 226 -184 409 -357 581 -206 204 -440 333 -721 395 -107 24
-427 30 -535 9z m515 -153 c221 -51 431 -159 590 -304 l53 -47 -329 -575
c-180 -316 -331 -572 -335 -567 -3 4 -99 146 -212 315 l-206 308 149 262 150
262 -210 3 c-116 1 -305 1 -420 0 l-210 -3 176 -263 c96 -145 174 -270 172
-277 -5 -23 -652 -1154 -661 -1155 -13 0 -116 165 -152 243 -87 191 -120 369
-112 591 12 325 129 602 351 834 202 212 443 338 741 388 111 19 353 11 465
-15z m797 -543 c93 -139 169 -326 198 -493 20 -115 20 -333 1 -446 -71 -402
-335 -751 -706 -935 -300 -148 -679 -170 -992 -58 -154 56 -313 150 -433 257
l-49 44 318 559 c175 307 324 565 331 573 11 11 51 -44 223 -301 l209 -313
-153 -268 -153 -267 426 0 425 0 -18 28 c-9 15 -91 137 -180 271 l-163 245 32
56 c320 563 633 1109 637 1110 3 0 24 -28 47 -62z m-1210 35 c-51 -94 -120
-213 -123 -213 -5 0 -144 208 -144 215 0 3 61 5 136 5 74 0 133 -3 131 -7z
m511 -1445 c29 -42 52 -80 52 -83 0 -7 -275 -7 -282 1 -3 3 23 57 59 120 l65
114 27 -38 c15 -20 51 -72 79 -114z"/>
<path d="M9455 2311 c-22 -10 -74 -45 -116 -78 -265 -211 -601 -751 -709
-1138 -26 -93 -54 -146 -116 -214 -49 -55 -117 -88 -156 -76 -30 10 -38 23
-38 66 0 50 24 115 125 331 47 104 85 196 83 205 -4 24 -114 82 -154 83 -17 0
-43 -9 -57 -20 -40 -32 -74 -25 -68 13 1 4 -5 23 -13 42 -37 88 -161 84 -230
-9 -17 -22 -21 -43 -22 -105 0 -77 -2 -80 -81 -242 -45 -90 -96 -186 -113
-212 -42 -62 -93 -97 -142 -97 -36 0 -88 17 -88 29 0 3 14 26 31 51 125 185
165 394 96 499 -140 212 -568 -15 -743 -393 -62 -134 -141 -222 -216 -241 -23
-6 -34 -1 -63 28 l-35 35 36 53 c48 71 82 147 105 238 42 164 10 290 -88 340
-27 14 -103 14 -137 1 -14 -5 -26 -8 -26 -6 0 2 70 147 155 322 85 175 155
324 155 331 0 7 -11 20 -25 29 -44 29 -160 -1 -207 -52 -9 -11 -146 -289 -304
-619 -231 -483 -295 -608 -328 -643 -39 -42 -220 -142 -232 -129 -3 3 67 172
155 376 89 204 161 376 161 382 0 6 -34 9 -91 7 l-92 -3 -138 -305 c-143 -314
-165 -351 -226 -366 -16 -4 -36 -2 -52 7 -47 26 -40 68 34 230 82 177 131 301
140 355 15 92 -50 157 -135 134 -71 -19 -112 -97 -75 -146 30 -40 17 -83 -83
-269 -122 -226 -196 -312 -315 -365 -87 -38 -209 -23 -237 29 -15 28 -13 111
3 111 22 0 137 59 208 106 91 62 208 186 244 259 39 79 45 160 15 197 -84 108
-351 22 -532 -170 -204 -218 -258 -494 -121 -624 48 -46 119 -71 213 -76 132
-6 258 25 350 87 l43 28 27 -31 c27 -29 33 -31 97 -31 54 0 79 6 123 27 30 15
56 26 58 24 1 -2 -4 -19 -13 -37 -14 -28 -29 -40 -88 -63 -146 -59 -287 -138
-347 -193 -149 -138 -125 -320 47 -352 68 -13 159 2 232 38 92 47 136 104 225
293 l79 166 46 12 c74 19 193 67 254 104 l57 35 16 -24 c59 -90 208 -102 361
-30 l72 34 31 -29 c36 -34 114 -55 174 -46 52 8 150 53 192 89 39 33 50 34 58
2 3 -13 22 -40 41 -59 89 -89 265 -59 440 75 l65 49 40 -20 c98 -50 215 -46
303 9 59 38 126 141 233 358 46 95 94 181 106 193 52 48 128 43 128 -9 0 -14
-39 -111 -87 -216 -88 -189 -88 -190 -88 -271 0 -73 3 -84 29 -118 43 -57 101
-79 195 -74 90 4 159 33 237 102 l52 45 6 -31 c32 -162 258 -192 464 -61 l53
34 30 -26 c17 -14 42 -28 56 -31 44 -11 124 4 179 36 l54 30 -21 -42 c-19 -39
-29 -46 -102 -77 -266 -111 -390 -203 -422 -315 -35 -120 14 -203 132 -225
103 -20 229 17 309 91 60 55 76 81 158 259 l68 145 76 23 c252 74 416 209 495
408 26 65 -3 123 -60 123 -12 0 -32 -27 -63 -82 -69 -125 -144 -200 -257 -255
-52 -25 -96 -43 -99 -40 -3 3 67 172 155 376 89 203 161 375 161 381 0 7 -31
10 -91 8 l-92 -3 -138 -305 c-142 -315 -165 -351 -226 -366 -16 -5 -36 -2 -52
8 -46 26 -36 78 54 273 119 259 138 325 111 389 -31 74 -134 82 -190 15 -29
-34 -33 -75 -11 -105 32 -42 17 -84 -104 -308 -126 -233 -237 -346 -340 -346
-69 0 -87 36 -78 159 9 131 107 401 246 679 154 307 334 561 390 550 47 -9 2
-194 -86 -358 -84 -156 -162 -260 -290 -387 -112 -111 -123 -124 -123 -157 0
-75 53 -52 184 79 182 183 349 453 432 700 83 248 39 365 -111 296z m-4285
-938 c0 -49 -41 -111 -119 -185 -76 -71 -235 -177 -247 -165 -12 12 102 196
175 284 38 47 105 98 136 105 31 7 55 -10 55 -39z m1427 2 c83 -58 13 -297
-134 -455 -31 -34 -69 -68 -84 -76 -64 -32 -129 -4 -129 56 0 17 44 120 104
245 94 194 108 217 138 230 43 19 78 19 105 0z m937 -108 c12 -46 -4 -122 -43
-202 l-28 -60 -8 39 c-11 53 0 143 26 210 23 64 39 68 53 13z m-184 -28 c-43
-127 -45 -252 -4 -330 16 -33 16 -33 -12 -56 -142 -117 -247 -59 -200 111 27
95 84 193 158 270 37 39 69 68 72 65 2 -2 -4 -29 -14 -60z m-1950 -774 c0 -3
-20 -45 -45 -94 -52 -104 -97 -147 -163 -157 -119 -18 -136 77 -28 155 66 47
236 116 236 96z m3920 1 c0 -3 -18 -43 -41 -90 -49 -103 -98 -152 -161 -161
-124 -19 -143 79 -30 157 65 45 232 112 232 94z"/>
<path d="M4519 2247 c-256 -220 -531 -573 -890 -1142 -52 -82 -115 -171 -140
-197 -40 -42 -50 -48 -87 -48 -36 0 -44 4 -57 29 -22 43 -53 61 -105 61 -88 0
-150 -70 -150 -168 0 -122 129 -195 275 -157 137 36 228 118 462 416 170 217
258 319 275 319 6 0 8 -11 4 -27 -4 -16 -14 -71 -22 -123 -28 -168 -3 -546 39
-587 26 -27 44 -2 82 115 116 352 400 749 694 967 79 58 92 73 102 109 34 131
119 333 179 426 36 56 37 70 6 70 -100 0 -506 -420 -751 -777 -91 -133 -100
-136 -92 -36 15 189 143 545 267 739 36 58 38 74 7 74 -15 0 -53 -25 -98 -63z"/>
</g>
</svg>
