<?xml version="1.0" encoding="utf-8"?>
<!-- Generator: Adobe Illustrator 26.1.0, SVG Export Plug-In . SVG Version: 6.00 Build 0)  -->
<svg version="1.1" id="a" xmlns="http://www.w3.org/2000/svg" xmlns:xlink="http://www.w3.org/1999/xlink" x="0px" y="0px"
	 viewBox="0 0 167.9 199.2" style="enable-background:new 0 0 167.9 199.2;" xml:space="preserve">
<style type="text/css">
	.st0{fill-rule:evenodd;clip-rule:evenodd;fill:#333333;}
</style>
<path class="st0" d="M58.6,188.5c18-13.3,27.6-40.1,34.9-68.9C191.1,100.1,202.1-33.9,69.6,8.1c-83.3,26.4-86.9,113.3-35.1,101.7
	C69.6,102,80.8,57.4,60,49c0,6.5-6.5,17.4-17.2,19.2C32.2,70,31.2,33.5,90.1,21.7c3.6-0.6,7-1.3,10.1-1.3
	c-30.1,39.9-27.9,131.6-56,140.2c-14.7,4.5-14.4-14.6-0.6-25c-15.2-3.4-37.4,5.6-43,32.3C-4.8,194.6,27.7,211.4,58.6,188.5
	L58.6,188.5L58.6,188.5z M97.1,104.8c7.3-32.5,12.9-64.9,25-81.1C152,38.4,134.8,93.4,97.1,104.8z"/>
</svg>
